<svg width="256" height="41" viewBox="0 0 256 41" fill="none" xmlns="http://www.w3.org/2000/svg">
<path d="M39.3015 31.152L30.5015 9.68H37.7615L43.3495 26.708H40.6655L46.3855 9.68H53.6455L44.4935 31.152H39.3015ZM33.8015 40.084L40.2255 26.224L44.4935 31.152L40.7095 40.084H33.8015Z" fill="white"/>
<path d="M58.8977 31.064V0.836H65.6297V31.064H58.8977ZM54.0577 15.4V9.68H70.4697V15.4H54.0577Z" fill="white"/>
<path d="M83.5662 31.548C81.2489 31.548 79.1809 31.0787 77.3622 30.14C75.5729 29.172 74.1649 27.8373 73.1382 26.136C72.1115 24.4347 71.5982 22.5133 71.5982 20.372C71.5982 18.2307 72.0969 16.324 73.0942 14.652C74.1209 12.9507 75.4995 11.616 77.2302 10.648C78.9609 9.68 80.9115 9.196 83.0822 9.196C85.1942 9.196 87.0569 9.65067 88.6702 10.56C90.2835 11.4693 91.5449 12.7307 92.4542 14.344C93.3929 15.9573 93.8622 17.8053 93.8622 19.888C93.8622 20.2693 93.8329 20.68 93.7742 21.12C93.7449 21.5307 93.6715 22.0147 93.5542 22.572L75.1182 22.616V17.996L90.6942 17.952L87.7902 19.888C87.7609 18.656 87.5702 17.644 87.2182 16.852C86.8662 16.0307 86.3382 15.4147 85.6342 15.004C84.9595 14.564 84.1235 14.344 83.1262 14.344C82.0702 14.344 81.1462 14.5933 80.3542 15.092C79.5915 15.5613 78.9902 16.236 78.5502 17.116C78.1395 17.996 77.9342 19.0667 77.9342 20.328C77.9342 21.5893 78.1542 22.6747 78.5942 23.584C79.0635 24.464 79.7089 25.1533 80.5302 25.652C81.3809 26.1213 82.3782 26.356 83.5222 26.356C84.5782 26.356 85.5315 26.18 86.3822 25.828C87.2329 25.4467 87.9809 24.8893 88.6262 24.156L92.3222 27.852C91.2662 29.084 89.9902 30.008 88.4942 30.624C86.9982 31.24 85.3555 31.548 83.5662 31.548Z" fill="white"/>
<path d="M196.309 31.152L187.509 9.68H194.769L200.357 26.708H197.673L203.393 9.68H210.653L201.501 31.152H196.309ZM190.809 40.084L197.233 26.224L201.501 31.152L197.717 40.084H190.809Z" fill="white"/>
<path d="M215.905 31.064V0.836H222.637V31.064H215.905ZM211.065 15.4V9.68H227.477V15.4H211.065Z" fill="white"/>
<path d="M240.574 31.548C238.257 31.548 236.189 31.0787 234.37 30.14C232.581 29.172 231.173 27.8373 230.146 26.136C229.119 24.4347 228.606 22.5133 228.606 20.372C228.606 18.2307 229.105 16.324 230.102 14.652C231.129 12.9507 232.507 11.616 234.238 10.648C235.969 9.68 237.919 9.196 240.09 9.196C242.202 9.196 244.065 9.65067 245.678 10.56C247.291 11.4693 248.553 12.7307 249.462 14.344C250.401 15.9573 250.87 17.8053 250.87 19.888C250.87 20.2693 250.841 20.68 250.782 21.12C250.753 21.5307 250.679 22.0147 250.562 22.572L232.126 22.616V17.996L247.702 17.952L244.798 19.888C244.769 18.656 244.578 17.644 244.226 16.852C243.874 16.0307 243.346 15.4147 242.642 15.004C241.967 14.564 241.131 14.344 240.134 14.344C239.078 14.344 238.154 14.5933 237.362 15.092C236.599 15.5613 235.998 16.236 235.558 17.116C235.147 17.996 234.942 19.0667 234.942 20.328C234.942 21.5893 235.162 22.6747 235.602 23.584C236.071 24.464 236.717 25.1533 237.538 25.652C238.389 26.1213 239.386 26.356 240.53 26.356C241.586 26.356 242.539 26.18 243.39 25.828C244.241 25.4467 244.989 24.8893 245.634 24.156L249.33 27.852C248.274 29.084 246.998 30.008 245.502 30.624C244.006 31.24 242.363 31.548 240.574 31.548Z" fill="white"/>
<path fill-rule="evenodd" clip-rule="evenodd" d="M113.031 31.064V6.028H119.939V31.064H113.031ZM119.939 0.44V6.028H129.663V0H119.939V0.44ZM113 0L113.031 6.028H103.307V0H113Z" fill="white"/>
<path d="M113 0L113.031 6.028H119.939V0.44V0H113Z" fill="white"/>
<path fill-rule="evenodd" clip-rule="evenodd" d="M132.103 30.096C133.893 31.064 135.887 31.548 138.087 31.548C140.317 31.548 142.311 31.064 144.071 30.096C145.831 29.0987 147.225 27.7493 148.251 26.048C149.278 24.3467 149.791 22.44 149.791 20.328C149.791 18.7538 149.506 17.3018 148.936 15.972H140.595V9.4181C139.795 9.27003 138.959 9.196 138.087 9.196C135.858 9.196 133.863 9.69467 132.103 10.692C130.343 11.66 128.95 12.98 127.923 14.652C126.897 16.324 126.383 18.216 126.383 20.328C126.383 22.44 126.897 24.3467 127.923 26.048C128.95 27.7493 130.343 29.0987 132.103 30.096ZM140.595 15.972C141.329 16.3827 141.901 16.9693 142.311 17.732C142.722 18.4653 142.927 19.3307 142.927 20.328C142.927 21.3253 142.722 22.22 142.311 23.012C141.93 23.7747 141.373 24.376 140.639 24.816C139.906 25.2267 139.055 25.432 138.087 25.432C137.149 25.432 136.313 25.2267 135.579 24.816C134.846 24.376 134.274 23.7747 133.863 23.012C133.453 22.22 133.247 21.34 133.247 20.372C133.247 19.3747 133.453 18.4947 133.863 17.732C134.274 16.9693 134.846 16.3827 135.579 15.972C136.313 15.532 137.149 15.312 138.087 15.312C139.055 15.312 139.891 15.532 140.595 15.972Z" fill="white"/>
<path fill-rule="evenodd" clip-rule="evenodd" d="M11.95 26.196H17.714C19.0633 26.196 20.1193 25.8 20.882 25.008V31.3702C20.0987 31.4994 19.2627 31.564 18.374 31.564H11.95H10.41H5.13V5.868H11.95V12.776H17.142C18.286 12.776 19.21 12.4973 19.914 11.94C20.618 11.3533 20.97 10.4733 20.97 9.3C20.97 8.156 20.618 7.30533 19.914 6.748C19.21 6.16133 18.286 5.868 17.142 5.868H11.95V0.5H18.462C20.4567 0.5 22.1433 0.866666 23.522 1.6C24.93 2.33333 26.0007 3.316 26.734 4.548C27.4673 5.78 27.834 7.144 27.834 8.64C27.834 10.5467 27.218 12.16 25.986 13.48C25.4552 14.0487 24.8156 14.5411 24.0671 14.9574C25.1169 15.4716 26.0058 16.1232 26.734 16.912C28.1713 18.4373 28.89 20.3147 28.89 22.544C28.89 23.4068 28.7806 24.2282 28.5618 25.008H20.882C21.6447 24.216 22.026 23.248 22.026 22.104C22.026 21.312 21.85 20.608 21.498 19.992C21.146 19.376 20.6473 18.892 20.002 18.54C19.386 18.188 18.6233 18.012 17.714 18.012H11.95V26.196Z" fill="white"/>
<path fill-rule="evenodd" clip-rule="evenodd" d="M174.722 25.696H168.958V17.512H174.722C175.631 17.512 176.394 17.688 177.01 18.04C177.655 18.392 178.154 18.876 178.506 19.492C178.858 20.108 179.034 20.812 179.034 21.604C179.034 22.748 178.652 23.716 177.89 24.508C177.127 25.3 176.071 25.696 174.722 25.696ZM185.57 24.508H177.89V30.8702C177.106 30.9994 176.27 31.064 175.382 31.064H168.958H167.418H162.138V5.368H167.418H168.958V12.276H174.15C175.294 12.276 176.218 11.9973 176.922 11.44C177.626 10.8533 177.978 9.97333 177.978 8.8C177.978 7.656 177.626 6.80533 176.922 6.248C176.218 5.66133 175.294 5.368 174.15 5.368H168.958V0H175.47C177.464 0 179.151 0.366666 180.53 1.1C181.938 1.83333 183.008 2.816 183.742 4.048C184.475 5.28 184.842 6.644 184.842 8.14C184.842 10.0467 184.226 11.66 182.994 12.98C182.463 13.5487 181.823 14.0411 181.075 14.4574C182.125 14.9716 183.014 15.6232 183.742 16.412C185.179 17.9373 185.898 19.8147 185.898 22.044C185.898 22.9068 185.788 23.7282 185.57 24.508Z" fill="white"/>
</svg>
