<svg width="256" height="256" viewBox="0 0 256 256" fill="none" xmlns="http://www.w3.org/2000/svg">
<path fill-rule="evenodd" clip-rule="evenodd" d="M89.6667 211.762H133.333C143.556 211.762 151.556 208.499 157.333 201.972V254.403C151.399 255.468 145.066 256 138.333 256H89.6667H78H38V44.238H89.6667V101.167H129C137.667 101.167 144.667 98.8706 150 94.2776C155.333 89.4429 158 82.1907 158 72.5212C158 63.0935 155.333 56.0831 150 51.4901C144.667 46.6553 137.667 44.238 129 44.238H89.6667V0H139C154.111 0 166.889 3.02172 177.333 9.06515C188 15.1086 196.111 23.2068 201.667 33.3598C207.222 43.5127 210 54.7535 210 67.0822C210 82.7951 205.333 96.0907 196 106.969C191.979 111.655 187.133 115.714 181.462 119.144C189.416 123.382 196.15 128.751 201.667 135.252C212.556 147.822 218 163.294 218 181.666C218 188.776 217.171 195.545 215.514 201.972H157.333C163.111 195.445 166 187.467 166 178.04C166 171.513 164.667 165.711 162 160.635C159.333 155.558 155.556 151.569 150.667 148.669C146 145.768 140.222 144.317 133.333 144.317H89.6667V211.762Z" fill="white"/>
</svg>
